<?xml version="1.0" encoding="UTF-8"?>
<svg id="Layer_1" data-name="Layer 1" xmlns="http://www.w3.org/2000/svg" version="1.1" viewBox="0 0 276 422.6">
  <defs>
    <style>
      .cls-1 {
        fill: #ef7e19;
        stroke-width: 0px;
      }
    </style>
  </defs>
  <g id="Livello_2" data-name="Livello 2">
    <path class="cls-1" d="M276,141.3c0-.7-.1-1.3-.1-1.9,0-.9,0-1.8-.1-2.7,0-.4,0-.9-.1-1.3v-1.1c-.1-.8-.2-1.7-.2-2.5l-.3-3c0-.2,0-.3-.1-.5h0c-.2-2.1-.5-4.2-.8-6.3s-.5-3.2-.9-4.8-.5-2.8-.8-4.1l-.9-3.6c-.2-1.1-.5-2.1-.8-3.2l-.9-2.9c-.2-.9-.5-1.8-.8-2.7l-.9-2.6c-.2-.8-.5-1.5-.8-2.3l-.9-2.3c-.2-.7-.5-1.4-.8-2.1l-.9-2c-.2-.7-.5-1.4-.8-2l-.9-1.8c-.3-.6-.5-1.3-.8-1.9l-.9-1.7-.8-1.6-.9-1.7-.8-1.5-.9-1.5-.8-1.5-.9-1.4c-.3-.5-.5-1-.8-1.4l-.9-1.4-.8-1.3-.9-1.3c-.3-.4-.6-.8-.8-1.2l-.9-1.2-.8-1.2-.9-1.2c-.3-.4-.6-.8-.8-1.2l-.9-1.1c-.3-.3-.6-.7-.8-1.1l-.9-1-.9-1.1-.8-1-.9-1-.8-1-.9-1-.8-.9-.9-1-.8-.9-.9-.9-.8-.9-.9-.8-.8-.9-.9-.8c-.2-.3-.5-.6-.8-.8l-.9-.8-.8-.9-.9-.7-.8-.8-.9-.8-.8-.7-.9-.7-.8-.7-.9-.8-.8-.6-.9-.7-.8-.7-.9-.7-.8-.6-.9-.7-.8-.6-.9-.6-.8-.6-.9-.6-.9-.6-.8-.6-.9-.6-.8-.6-.9-.5-.8-.6-.4-.3-.5-.2h-.1l-.7-.4-.9-.6-.8-.5-.7-.4c0,0-.1,0-.1,0h0s-.6-.3-.6-.3l-2.4-1.4-2.3-1.4-.7-.4-1.6-1-2.4-1.3-2.3-1.3-2.4-1.2-2.3-1.2-2.3-1.3-2.4-1.1-2.3-1-2.4-1-2.3-.9-2.3-.9-2.4-.9-2.3-.8-2.4-.8-2.3-.7-2.3-.7-2.4-.7-2.3-.6-2.3-.6-2.4-.5-2.3-.5-2.4-.5-2.3-.4-2.3-.4-2.4-.4-2.3-.3-2.4-.3-2.3-.3-2.3-.2-2.4-.2h-2.3l-2.4-.3H21.1l-2.4.2-2.3.5-2.4.8-2.3,1.1-2.3,1.4c-.8.6-1.6,1.2-2.4,1.9-.8.8-1.6,1.7-2.3,2.6-.9,1.2-1.7,2.4-2.4,3.7C.8,15.4,0,18.8,0,22.2v314.6c0,3.4.8,6.8,2.3,9.9.7,1.3,1.5,2.5,2.4,3.7.7.9,1.5,1.8,2.3,2.6.8.7,1.6,1.3,2.4,1.9l2.3,1.4,2.3,1.1,2.4.8,2.3.5,2.4.2h2.3l2.3-.3,2.4-.5,2.3-.8,2.4-1.1,2.3-1.5,2.3-2c.9-.8,1.7-1.7,2.4-2.6.9-1.3,1.7-2.6,2.3-4,1.4-2.9,2.1-6.1,2.1-9.3v-87.8l.7-.6,1.5-1.4,1.6-1.4,1.7-1.4,1.6-1.4,1.7-1.5,1.8-1.5,1.8-1.5,1.9-1.7,2-1.8,2.3-1.9,2.6-2.2,3.3-2.9,1-.9,1.1,1.3,6.8,8,6.7,8.1,6.8,8,6.8,8,6.8,8,6.8,8,6.8,8,6.8,8.1,6.8,8,6.8,8,6.8,8,6.7,8,6.8,8,6.8,8.1,6.8,8,6.8,8,6.8,8,6.8,8,6.8,8,6.8,8,6.8,8.1,6.7,8,6.8,8,1.8,2.1c1.4,1.7,3.1,3.2,5,4.4,2.1,1.3,4.4,2.3,6.8,2.8,1.7.4,3.4.6,5.1.6h1.7c2.3-.2,4.6-.8,6.8-1.7,2.1-.9,4.1-2,5.8-3.5l1-.9c8.4-8.1,9-21.3,1.5-30.2l-1.5-1.8-6.8-8.1-6.8-8-6.8-8-6.8-8-6.8-8-6.8-8-6.7-8-6.8-8.1-6.8-8-6.8-8-6.8-8-6.8-8-6.8-8-6.8-8.1-6.8-8-6.8-8-6.7-8-6.8-8-6.8-8-6.8-8.1-6.8-8-6.8-8-6.8-8-1.4-1.7,1.4-1.3,6.8-6,6.8-6,6.8-6,6.8-6,6.8-6,6.8-6.1,6.7-6,6.8-6,.6-.5c2.9-2.5,5-5.7,6.2-9.3,1.6-4.7,1.6-9.8,0-14.5-.9-2.7-2.4-5.2-4.3-7.4-.8-.8-1.6-1.6-2.5-2.3-2-1.7-4.3-3-6.8-3.9-2.2-.7-4.4-1.1-6.7-1.2-2.3,0-4.6.3-6.8.9-2.4.8-4.7,1.9-6.8,3.4l-1.6,1.3-5.2,4.6-6.8,6-6.8,6-6.8,6-6.8,6.1-6.8,6-5.9,5.2-.8.7-.8.6-.7.6-1.5,1.3-1.5,1.3-1.6,1.3-1.5,1.3-1.5,1.4-1.6,1.3-1.6,1.4-1.6,1.4-1.7,1.5-1.7,1.4-1.7,1.5-1.9,1.6-1.9,1.7-2,1.7-2.3,2-2.5,2.2-3.4,2.9-7.2,6.3V44.1h82.1l2.3.2h2.4l2.3.2,2.4.3,2.3.3,2.3.3,2.4.5,2.3.4,2.4.5,2.3.6,2.3.6,2.4.7,2.3.7,2.4.7,2.3.9,2.3.9,2.4.9,2.3,1,2.3,1.1,2.4,1.1,2.3,1.2,2.4,1.3,2.3,1.4h.1l2.2,1.3,2.4,1.4,1.5,1h.3l.8.5.9.6.7.4h.1l.3.2.6.4.9.5.7.5h.3l.7.5.8.6.9.6.8.6.9.7.8.7.9.6c.2.3.5.5.8.7l.9.8.8.7.9.7.8.8.9.8.8.8.9.8.8.9.9.9.8.8.9,1,.8.9.9,1c.3.3.6.6.8,1l.9,1c.3.3.6.7.8,1.1l.9,1.1c.3.3.6.7.8,1.1l.9,1.2.8,1.2.9,1.2.8,1.3.9,1.4.9,1.4c.2.5.5,1,.8,1.5l.9,1.5.8,1.6.9,1.7.8,1.8.9,1.8.8,2.1.9,2.1c.3.8.5,1.6.8,2.4l.9,2.5c.2.8.5,1.6.7,2.4v.4h0l.6,1.9.3,1.2h0c.1.4.2.8.2,1.2.2.6.3,1.2.5,1.9v.3c0,.1.1.3.1.4l.6,3.3.3,1.7h0c.1.7.2,1.3.2,2,.1.6.2,1.1.2,1.7.1.8.2,1.5.2,2.3,0,.2.1.3.1.4v1c0,.6.1,1.2.1,1.8,0,.5.1,1,.1,1.6v4.4h0c0,1.9-.1,3.8-.2,5.7-.4,5-1.2,10-2.4,14.9-.6,2.7-1.4,5.4-2.3,8-.7,2.1-1.5,4.1-2.4,6.1-.7,1.7-1.5,3.4-2.3,5.1s-1.5,2.9-2.3,4.4l-2.4,3.8c-.7,1.2-1.5,2.4-2.3,3.5l-2.3,3.2-2.4,2.9-2.3,2.7-2.4,2.4c-.7.8-1.5,1.6-2.3,2.3l-2.3,2.2-2.4,2-2.3,1.9-2.3,1.8h-.1l-2.3,1.7-2.3,1.8-2.4,1.7-2.3,1.7-2.4,1.8-2.3,1.7-2.3,1.7-2.4,1.8-.3.2-2,1.7c-.9.8-1.7,1.7-2.4,2.6-.9,1.2-1.6,2.4-2.3,3.7-3.1,6.1-3.1,13.4,0,19.5.6,1.2,1.3,2.3,2.1,3.4.1,0,.2.2.2.4l2.4,2.5,2.3,2,2.4,1.4,2.3,1.1,2.3.8,2.4.5,2.3.2c.8,0,1.6,0,2.4,0l2.3-.3,2.3-.5,2.4-.8,2.3-1.1c.8-.4,1.6-.9,2.4-1.5,0,0,.1,0,.1-.1h0l2.2-1.6,2.3-1.7,2.4-1.7,2.3-1.8,2.4-1.7,2.3-1.7,2.3-1.8,2.4-1.7.6-.5,1.7-1.3,2.3-1.8,2.4-1.9,2.3-2,2.4-2.1,2.3-2.2,2.3-2.3,2.4-2.4,2.3-2.5,2.4-2.7,2.3-2.8,2.3-3,2.4-3.1,2.3-3.4,2.4-3.6,2.3-3.8c.8-1.4,1.6-2.8,2.3-4.2l2.4-4.6c.8-1.6,1.6-3.3,2.3-5s1.6-3.7,2.3-5.6,1.7-4.3,2.4-6.5,1.6-5.2,2.3-7.8,1.7-6.8,2.4-10.3c1.3-7.4,2.1-15,2.3-22.5v-5.1,1Z"/>
  </g>
</svg>